<?xml version="1.0" standalone="no"?><!DOCTYPE svg PUBLIC "-//W3C//DTD SVG 1.1//EN" "http://www.w3.org/Graphics/SVG/1.1/DTD/svg11.dtd"><svg t="1561538478297" class="icon" viewBox="0 0 1024 1024" version="1.1" xmlns="http://www.w3.org/2000/svg" p-id="2237" xmlns:xlink="http://www.w3.org/1999/xlink" width="48" height="48"><defs><style type="text/css"></style></defs><path d="M654.688607 340.576674A255.737503 255.737503 0 0 0 767.9975 128.00875a95.999063 95.999063 0 0 0-153.5985-76.80925 127.99875 127.99875 0 0 0-204.798 0A95.999063 95.999063 0 0 0 256.0025 128.00875a255.737503 255.737503 0 0 0 113.308893 212.567924C173.893302 401.336081 32.004687 583.594301 32.004687 799.002197c0 124.258787 100.739016 224.997803 224.997803 224.997803h509.99502c124.258787 0 224.997803-100.739016 224.997803-224.997803 0-215.407896-141.888614-397.666117-337.306706-458.425523z m-278.457281-76.79925A190.738137 190.738137 0 0 1 320.001875 128.00875a31.999688 31.999688 0 0 1 31.999687-31.999688 31.669691 31.669691 0 0 1 19.159813 6.369938 63.999375 63.999375 0 0 0 89.609125-12.729875 63.999375 63.999375 0 0 1 102.459 0 63.999375 63.999375 0 0 0 89.609125 12.729875A31.659691 31.659691 0 0 1 671.998438 96.009062a31.999688 31.999688 0 0 1 31.999687 31.999688 191.998125 191.998125 0 0 1-175.458287 191.288132Q520.299919 319.006885 512 319.006885q-8.299919 0-16.529839 0.289997a190.548139 190.548139 0 0 1-119.228835-55.529458z m504.605072 649.063662A159.998438 159.998438 0 0 1 766.99751 960.000625H257.00249A160.998428 160.998428 0 0 1 96.004062 799.002197a415.555942 415.555942 0 0 1 398.226112-415.615941c5.869943 0.399996 11.789885 0.619994 17.769826 0.619994s11.889884-0.219998 17.769826-0.619994A415.575942 415.575942 0 0 1 927.995938 799.002197a159.998438 159.998438 0 0 1-47.15954 113.838889z" p-id="2238"></path><path d="M630.628842 521.374908a31.999688 31.999688 0 0 0-45.259558 0L512 594.754192l-73.369284-73.369284a31.999688 31.999688 0 0 0-45.249558 45.259558L466.740442 640.00375H416.000937a31.999688 31.999688 0 0 0 0 63.999375h63.999375v63.999375h-63.999375a31.999688 31.999688 0 0 0 0 63.999375h63.999375v31.999687a31.999688 31.999688 0 0 0 63.999376 0v-31.999687h63.999375a31.999688 31.999688 0 0 0 0-63.999375h-63.999375v-63.999375h63.999375a31.999688 31.999688 0 0 0 0-63.999375h-50.739505l73.369284-73.369284a31.999688 31.999688 0 0 0 0-45.259558z" p-id="2239"></path></svg>